<svg xmlns="http://www.w3.org/2000/svg" xmlns:xlink="http://www.w3.org/1999/xlink" width="254.328" height="269" viewBox="0 0 254.328 269">
  <defs>
    <clipPath id="clip-path">
      <rect id="Rectangle_7" data-name="Rectangle 7" width="254.328" height="269" fill="none"/>
    </clipPath>
  </defs>
  <g id="Group_13" data-name="Group 13" opacity="0.2">
    <g id="Group_3" data-name="Group 3" clip-path="url(#clip-path)">
      <path id="Path_24" data-name="Path 24" d="M221.971,232.165H10.2A10.208,10.208,0,0,1,0,221.966V10.2A10.208,10.208,0,0,1,10.2,0H221.971a10.207,10.207,0,0,1,10.195,10.2V221.966a10.207,10.207,0,0,1-10.195,10.2M10.2,8.253A1.949,1.949,0,0,0,8.253,10.2V221.966a1.95,1.95,0,0,0,1.947,1.946H221.971a1.946,1.946,0,0,0,1.941-1.946V10.2a1.944,1.944,0,0,0-1.941-1.945Z" fill="#afd3e2"/>
      <path id="Path_25" data-name="Path 25" d="M146.116,158.289a3.505,3.505,0,1,1,3.505,3.505,3.5,3.5,0,0,1-3.505-3.505" transform="translate(101.202 107.205)" fill="#afd3e2"/>
      <path id="Path_26" data-name="Path 26" d="M113.668,158.289a3.505,3.505,0,1,1,3.505,3.505,3.5,3.5,0,0,1-3.505-3.505" transform="translate(78.728 107.205)" fill="#afd3e2"/>
      <path id="Path_27" data-name="Path 27" d="M81.219,158.289a3.505,3.505,0,1,1,3.505,3.505,3.5,3.5,0,0,1-3.505-3.505" transform="translate(56.253 107.205)" fill="#afd3e2"/>
      <path id="Path_28" data-name="Path 28" d="M48.771,158.289a3.505,3.505,0,1,1,3.505,3.505,3.5,3.5,0,0,1-3.505-3.505" transform="translate(33.779 107.205)" fill="#afd3e2"/>
      <path id="Path_29" data-name="Path 29" d="M16.322,158.289a3.506,3.506,0,1,1,3.505,3.505,3.5,3.5,0,0,1-3.505-3.505" transform="translate(11.305 107.205)" fill="#afd3e2"/>
      <path id="Path_30" data-name="Path 30" d="M146.116,129.292a3.505,3.505,0,1,1,3.505,3.505,3.5,3.5,0,0,1-3.505-3.505" transform="translate(101.202 87.122)" fill="#afd3e2"/>
      <path id="Path_31" data-name="Path 31" d="M113.668,129.292a3.505,3.505,0,1,1,3.505,3.505,3.5,3.5,0,0,1-3.505-3.505" transform="translate(78.728 87.122)" fill="#afd3e2"/>
      <path id="Path_32" data-name="Path 32" d="M81.219,129.292a3.505,3.505,0,1,1,3.505,3.505,3.5,3.5,0,0,1-3.505-3.505" transform="translate(56.253 87.122)" fill="#afd3e2"/>
      <path id="Path_33" data-name="Path 33" d="M48.771,129.292a3.505,3.505,0,1,1,3.505,3.505,3.5,3.5,0,0,1-3.505-3.505" transform="translate(33.779 87.122)" fill="#afd3e2"/>
      <path id="Path_34" data-name="Path 34" d="M16.322,129.292a3.506,3.506,0,1,1,3.505,3.505,3.5,3.5,0,0,1-3.505-3.505" transform="translate(11.305 87.122)" fill="#afd3e2"/>
      <path id="Path_35" data-name="Path 35" d="M146.116,100.3a3.505,3.505,0,1,1,3.505,3.505,3.5,3.5,0,0,1-3.505-3.505" transform="translate(101.202 67.039)" fill="#afd3e2"/>
      <path id="Path_36" data-name="Path 36" d="M113.668,100.3a3.505,3.505,0,1,1,3.505,3.505,3.5,3.5,0,0,1-3.505-3.505" transform="translate(78.728 67.039)" fill="#afd3e2"/>
      <path id="Path_37" data-name="Path 37" d="M81.219,100.3a3.505,3.505,0,1,1,3.505,3.505,3.5,3.5,0,0,1-3.505-3.505" transform="translate(56.253 67.039)" fill="#afd3e2"/>
      <path id="Path_38" data-name="Path 38" d="M48.771,100.3a3.505,3.505,0,1,1,3.505,3.505,3.5,3.5,0,0,1-3.505-3.505" transform="translate(33.779 67.039)" fill="#afd3e2"/>
      <path id="Path_39" data-name="Path 39" d="M16.322,100.3a3.506,3.506,0,1,1,3.505,3.505,3.5,3.5,0,0,1-3.505-3.505" transform="translate(11.305 67.039)" fill="#afd3e2"/>
      <path id="Path_40" data-name="Path 40" d="M146.116,71.3a3.505,3.505,0,1,1,3.505,3.505,3.5,3.5,0,0,1-3.505-3.505" transform="translate(101.202 46.955)" fill="#afd3e2"/>
      <path id="Path_41" data-name="Path 41" d="M113.668,71.3a3.505,3.505,0,1,1,3.505,3.505,3.5,3.5,0,0,1-3.505-3.505" transform="translate(78.728 46.955)" fill="#afd3e2"/>
      <path id="Path_42" data-name="Path 42" d="M81.219,71.3A3.505,3.505,0,1,1,84.724,74.8,3.5,3.5,0,0,1,81.219,71.3" transform="translate(56.253 46.955)" fill="#afd3e2"/>
      <path id="Path_43" data-name="Path 43" d="M48.771,71.3A3.505,3.505,0,1,1,52.276,74.8,3.5,3.5,0,0,1,48.771,71.3" transform="translate(33.779 46.955)" fill="#afd3e2"/>
      <path id="Path_44" data-name="Path 44" d="M16.322,71.3A3.506,3.506,0,1,1,19.827,74.8,3.5,3.5,0,0,1,16.322,71.3" transform="translate(11.305 46.955)" fill="#afd3e2"/>
      <path id="Path_45" data-name="Path 45" d="M146.116,42.3a3.505,3.505,0,1,1,3.505,3.505,3.5,3.5,0,0,1-3.505-3.505" transform="translate(101.202 26.872)" fill="#afd3e2"/>
      <path id="Path_46" data-name="Path 46" d="M113.668,42.3a3.505,3.505,0,1,1,3.505,3.505,3.5,3.5,0,0,1-3.505-3.505" transform="translate(78.728 26.872)" fill="#afd3e2"/>
      <path id="Path_47" data-name="Path 47" d="M81.219,42.3a3.505,3.505,0,1,1,3.505,3.505A3.5,3.5,0,0,1,81.219,42.3" transform="translate(56.253 26.872)" fill="#afd3e2"/>
      <path id="Path_48" data-name="Path 48" d="M48.771,42.3a3.505,3.505,0,1,1,3.505,3.505A3.5,3.5,0,0,1,48.771,42.3" transform="translate(33.779 26.872)" fill="#afd3e2"/>
      <path id="Path_49" data-name="Path 49" d="M16.322,42.3a3.506,3.506,0,1,1,3.505,3.505A3.5,3.5,0,0,1,16.322,42.3" transform="translate(11.305 26.872)" fill="#afd3e2"/>
      <path id="Path_50" data-name="Path 50" d="M146.116,13.306a3.505,3.505,0,1,1,3.505,3.505,3.5,3.5,0,0,1-3.505-3.505" transform="translate(101.202 6.788)" fill="#afd3e2"/>
      <path id="Path_51" data-name="Path 51" d="M113.668,13.306a3.505,3.505,0,1,1,3.505,3.505,3.5,3.5,0,0,1-3.505-3.505" transform="translate(78.728 6.788)" fill="#afd3e2"/>
      <path id="Path_52" data-name="Path 52" d="M81.219,13.306a3.505,3.505,0,1,1,3.505,3.505,3.5,3.5,0,0,1-3.505-3.505" transform="translate(56.253 6.788)" fill="#afd3e2"/>
      <path id="Path_53" data-name="Path 53" d="M48.771,13.306a3.505,3.505,0,1,1,3.505,3.505,3.5,3.5,0,0,1-3.505-3.505" transform="translate(33.779 6.788)" fill="#afd3e2"/>
      <path id="Path_54" data-name="Path 54" d="M16.322,13.306a3.506,3.506,0,1,1,3.505,3.505,3.5,3.5,0,0,1-3.505-3.505" transform="translate(11.305 6.788)" fill="#afd3e2"/>
    </g>
  </g>
</svg>
