<svg id="arrow-right-circle" xmlns="http://www.w3.org/2000/svg" width="62" height="62" viewBox="0 0 62 62">
  <g id="Group_3601" data-name="Group 3601">
    <path id="Path_20191" data-name="Path 20191" d="M58.125,31A27.125,27.125,0,1,1,31,3.875,27.125,27.125,0,0,1,58.125,31ZM0,31A31,31,0,1,0,31,0,31,31,0,0,0,0,31Zm44.563-1.937a1.938,1.938,0,0,1,0,3.875H22.115l8.32,8.316A1.94,1.94,0,1,1,27.691,44L16.066,32.372a1.938,1.938,0,0,1,0-2.744L27.691,18a1.94,1.94,0,1,1,2.744,2.744l-8.32,8.316Z" fill="#cfcfcf" fill-rule="evenodd"/>
  </g>
</svg>
