<svg id="icon" xmlns="http://www.w3.org/2000/svg" width="20.441" height="20.531" viewBox="0 0 20.441 20.531">
  <path id="Phone" d="M14.134,20.531c-3.11,0-6.68-1.713-9.551-4.582A15.514,15.514,0,0,1,.195,8.282a6.93,6.93,0,0,1,1.56-6.476A5.891,5.891,0,0,1,5.146.11L5.907,0,8.7,6.522l-2.8,1.4a16.265,16.265,0,0,0,2.919,3.786,16.7,16.7,0,0,0,3.77,2.9l1.314-2.572,6.483.925.039.827a6.419,6.419,0,0,1-1.706,5A6.314,6.314,0,0,1,14.134,20.531ZM4.7,2.264h0a3.9,3.9,0,0,0-1.532.958C2.056,4.334,1.742,6.138,2.283,8.3A13.855,13.855,0,0,0,6,14.535c2.448,2.447,5.58,3.968,8.174,3.968a4.32,4.32,0,0,0,3.14-1.14,4.081,4.081,0,0,0,1.11-2.669l-3.367-.482-.646,1.294a1.973,1.973,0,0,1-1.185,1.01,2,2,0,0,1-.6.092,2.062,2.062,0,0,1-.981-.249,18.681,18.681,0,0,1-4.228-3.238A18.347,18.347,0,0,1,4.143,8.873,2.01,2.01,0,0,1,5.015,6.13l1.106-.553L4.7,2.264Z" transform="translate(0)" fill="#19a7ce"/>
</svg>
