<svg id="arrow-right-circle" xmlns="http://www.w3.org/2000/svg" width="62" height="62" viewBox="0 0 62 62">
  <g id="Group_3601" data-name="Group 3601">
    <path id="Path_20191" data-name="Path 20191" d="M3.875,31A27.125,27.125,0,1,0,31,3.875,27.125,27.125,0,0,0,3.875,31ZM62,31A31,31,0,1,1,31,0,31,31,0,0,1,62,31ZM17.438,29.063a1.938,1.938,0,0,0,0,3.875H39.885l-8.32,8.316A1.94,1.94,0,1,0,34.309,44L45.934,32.372a1.938,1.938,0,0,0,0-2.744L34.309,18a1.94,1.94,0,0,0-2.744,2.744l8.32,8.316Z" fill="#146c94" fill-rule="evenodd"/>
  </g>
</svg>
